<?xml version="1.0" standalone="no"?><!DOCTYPE svg PUBLIC "-//W3C//DTD SVG 1.1//EN" "http://www.w3.org/Graphics/SVG/1.1/DTD/svg11.dtd"><svg t="1700049298665" class="icon" viewBox="0 0 1024 1024" version="1.1" xmlns="http://www.w3.org/2000/svg" p-id="5461" data-spm-anchor-id="a313x.search_index.0.i7.12f63a8190mGZy" xmlns:xlink="http://www.w3.org/1999/xlink" width="200" height="200"><path d="M832.72 130.4a527.93 527.93 0 0 1 9.46 99.6c0 302.65-256.71 548-573.38 548a605.46 605.46 0 0 1-62.94-3.28V896c0 33 28.25 60 62.78 60H772a100 100 0 0 0 100-100V186c0-25.07-16.31-46.66-39.28-55.6z" fill="#bae0ff" p-id="5462" data-spm-anchor-id="a313x.search_index.0.i8.12f63a8190mGZy" class=""></path><path d="M695 790H362a25 25 0 0 1 0-50h333a25 25 0 0 1 0 50zM583 649H362a25 25 0 0 1 0-50h221a25 25 0 0 1 0 50zM262 287H129a25 25 0 0 1 0-50h133a25 25 0 0 1 0 50zM262 455.33H129a25 25 0 1 1 0-50h133a25 25 0 0 1 0 50zM262 623.67H129a25 25 0 0 1 0-50h133a25 25 0 0 1 0 50zM262 792H129a25 25 0 0 1 0-50h133a25 25 0 0 1 0 50z" fill="#4096ff" p-id="5463" data-spm-anchor-id="a313x.search_index.0.i5.12f63a8190mGZy" class=""></path><path d="M761.76 964H295.62a125.14 125.14 0 0 1-125-125V209a125.14 125.14 0 0 1 125-125h466.14a125.14 125.14 0 0 1 125 125v630a125.14 125.14 0 0 1-125 125zM295.62 134a75.09 75.09 0 0 0-75 75v630a75.08 75.08 0 0 0 75 75h466.14a75.08 75.08 0 0 0 75-75V209a75.09 75.09 0 0 0-75-75z" fill="#1677ff" p-id="5464" data-spm-anchor-id="a313x.search_index.0.i3.12f63a8190mGZy" class=""></path><path d="M617 376H443a25 25 0 0 1 0-50h174a25 25 0 0 1 0 50z" fill="#faad14" p-id="5465" data-spm-anchor-id="a313x.search_index.0.i10.12f63a8190mGZy" class=""></path><path d="M530 463a25 25 0 0 1-25-25V264a25 25 0 0 1 50 0v174a25 25 0 0 1-25 25z" fill="#FFA143" p-id="5466"></path></svg>