<?xml version="1.0" standalone="no"?><!DOCTYPE svg PUBLIC "-//W3C//DTD SVG 1.1//EN" "http://www.w3.org/Graphics/SVG/1.1/DTD/svg11.dtd"><svg t="1701936523422" class="icon" viewBox="0 0 1024 1024" version="1.1" xmlns="http://www.w3.org/2000/svg" p-id="7011" xmlns:xlink="http://www.w3.org/1999/xlink" width="200" height="200"><path d="M905.7 588.2C760 439.5 774.8 382.9 796.2 323.6c21.5-59.3-30.6-320.6-223.6-219C379.5 206.2 437 342.1 299.3 336c-137.7-6-306.9 67.8-206 340.2 39.5 106.4 114.5 209.7 230.6 224.6s306.8-23 422.9 34.7c116.2 57.6 304.5-198.6 158.9-347.3zM715.5 867c-98-45.6-258.3-18.8-356.8-29.7S184.3 757.8 152 671.8C69.2 452 229.3 389.9 346.2 393.5 463 397 413.5 260.9 578.3 176.7c164.9-84.2 175.4 133.9 156.6 182.2C713.1 414.7 715 467.7 842.5 592c122.3 119.1-28.9 320.7-127 275z" p-id="7012" fill="#409eff"></path><path d="M433.4 501c-88.1 41.2-99.5-56.2-207.6 36.8-53 45.6-7.5 153.6 60.8 175.7 68.4 22.2 135.9-2.3 189-48.4 53-46.3 46-205.5-42.2-164.1zM665.8 464.6c-4.3-103.8 47.5-259.5-55.4-233-63.3 16.3-122.9 122.4-97.3 169.7 25.6 47.1 80.7 130.9 62.6 191.6-18 60.6-4.6 134.2 55.7 156 60.4 21.8 189.4 14.5 191.1-49.1 1.6-63.6-152.3-131.3-156.7-235.2z" p-id="7013" fill="#409eff"></path></svg>