<?xml version="1.0" standalone="no"?><!DOCTYPE svg PUBLIC "-//W3C//DTD SVG 1.1//EN" "http://www.w3.org/Graphics/SVG/1.1/DTD/svg11.dtd"><svg t="1701845054149" class="icon" viewBox="0 0 1024 1024" version="1.1" xmlns="http://www.w3.org/2000/svg" p-id="4531" xmlns:xlink="http://www.w3.org/1999/xlink" width="200" height="200"><path d="M895.606124 792.06332a212.29599 212.29599 0 0 1 8.16523 38.840015A367.65605 367.65605 0 0 1 906.419537 878.349944a276.07306 276.07306 0 0 1-3.530911 45.460472 88.272761 88.272761 0 0 1-10.813413 32.660922 61.790933 61.790933 0 0 1-28.688647 14.785687q-23.612964 7.723867-58.701386 15.227052t-78.121394 14.785687q-42.812289 7.061821-86.286624 12.358187t-83.197077 7.723866q-39.502061 2.648183-69.956163 2.648183t-66.204571-3.089547q-37.736605-3.089547-78.121394-7.723866t-79.666167-10.813413q-40.826152-5.958411-72.162982-12.578869t-54.729112-12.358186a83.638441 83.638441 0 0 1-28.688647-10.813414 88.272761 88.272761 0 0 1-15.889097-49.653428 390.606968 390.606968 0 0 1 4.855002-107.472086 86.727988 86.727988 0 0 1 30.674784-56.273886 191.772574 191.772574 0 0 1 57.156613-30.674784q32.660922-11.254777 67.970026-20.523417a208.103034 208.103034 0 0 0 61.790933-26.481828 177.869614 177.869614 0 0 0 30.674784-23.612964 81.431622 81.431622 0 0 0 16.330461-22.06819 74.149119 74.149119 0 0 0 6.620457-22.068191 116.078681 116.078681 0 0 0 0-24.495691l-90.038216-12.358186a117.844136 117.844136 0 0 1-32.660922-38.840015 245.83964 245.83964 0 0 1-22.06819-58.701386 394.137878 394.137878 0 0 1-9.710004-96.658674q0-48.991382 5.075684-104.823904A383.986511 383.986511 0 0 1 244.373828 166.209444 272.321468 272.321468 0 0 1 303.516578 75.067818 244.956912 244.956912 0 0 1 411.209347 14.380295a198.613712 198.613712 0 0 1 39.943424-9.710004q19.420007-2.648183 37.736606-4.63432H531.260302a193.317347 193.317347 0 0 1 90.47958 20.523417 244.294866 244.294866 0 0 1 68.41139 52.963657 317.78194 317.78194 0 0 1 50.094792 74.590483 497.858373 497.858373 0 0 1 32.219558 83.859123 528.312475 528.312475 0 0 1 16.330461 81.21094 447.984263 447.984263 0 0 1 3.53091 66.204571 339.188085 339.188085 0 0 1-13.90296 77.238666 504.699512 504.699512 0 0 1-22.06819 58.701386 304.761708 304.761708 0 0 1-29.571375 51.198202l-100.189584 16.33046a104.38254 104.38254 0 0 0 1.544773 27.143874 79.004121 79.004121 0 0 0 10.813414 27.143874A101.513675 101.513675 0 0 0 663.669444 663.185089a145.208692 145.208692 0 0 0 39.943424 22.06819 445.33608 445.33608 0 0 0 54.729112 18.316598q30.233421 8.16523 58.260022 18.978644a207.220307 207.220307 0 0 1 50.094792 27.143874 82.31435 82.31435 0 0 1 30.233421 42.812289z" fill="#f46fa9" p-id="4532"></path></svg>