<?xml version="1.0" standalone="no"?><!DOCTYPE svg PUBLIC "-//W3C//DTD SVG 1.1//EN" "http://www.w3.org/Graphics/SVG/1.1/DTD/svg11.dtd"><svg t="1701845013459" class="icon" viewBox="0 0 1024 1024" version="1.1" xmlns="http://www.w3.org/2000/svg" p-id="4283" xmlns:xlink="http://www.w3.org/1999/xlink" width="200" height="200"><path d="M826.034315 767.732217c-189.434951-16.933994-200.724281-103.184473-200.724282-103.184473V578.071479c110.635431-43.125239 144.503419-208.175239 144.50342-208.175239 0-65.703899-31.83591-67.735978-31.83591-67.735977V195.588991C745.202714 17.443369 638.405656 58.762316 637.050936 58.762316S576.765916 11.798704 576.765916 11.798704c-41.318946-31.83591-133.21409 10.837756-133.21409 10.837757h-3.838372c-104.087619 2.709439-131.18201 78.573734-131.18201 78.573734l1.806292 196.885909c-54.188782 0-46.963611 76.993228-46.963611 76.993228 0 84.444186 146.309712 200.498494 146.309712 200.498495 9.25725 110.635431-48.769904 166.856292-48.769904 166.856292a946.723184 946.723184 0 0 0-211.787824 37.480574l-8.805677 2.935226a227.141312 227.141312 0 0 0-135.471956 139.987687v101.152394h1014.233375v-78.573734C1020.888144 829.14617 826.034315 767.732217 826.034315 767.732217z" fill="#3fa9f5" p-id="4284"></path></svg>